<svg width="91" height="86" viewBox="0 0 91 86" fill="none" xmlns="http://www.w3.org/2000/svg">
    <path d="M90.2 36.1C90.2 16.2 74 0 54.1 0C51 0 48 0.400006 45.1 1.10001C50.6 2.50001 55.6 5.19999 59.8 8.79999C61.6 9.69999 63.3 10.7 64.9 11.9C76.3 18 84 30 84 43.7C84 50.4 82.1 56.7 78.9 62.1C85.9 55.7 90.2 46.4 90.2 36.1Z" fill="#69ACDF"/>
    <path d="M11.4 25.3C15.7 16.5 23.5 9.69999 33 6.79999C36.6 4.19999 40.6 2.29998 45 1.19998C42.1 0.499984 39.1 0.100009 36 0.100009C16.2 8.82894e-06 0 16.2 0 36.1C0 40.8 0.9 45.4 2.6 49.5C2.6 49.3 2.6 49.1 2.6 49C2.6 39.9 5.9 31.6 11.4 25.3Z" fill="#A1C854"/>
    <path d="M43.8 5.19998C49.5 5.19998 54.9 6.49999 59.7 8.89999C55.5 5.29999 50.6 2.59998 45 1.19998C40.6 2.29998 36.6 4.29999 33 6.79999C36.5 5.69999 40.1 5.19998 43.8 5.19998Z" fill="#599F46"/>
    <path d="M26.8 73.1C24.4 71.8 22.1 70.3 20.1 68.5C12.2 64.6 5.9 57.8 2.6 49.6C2.9 69.3 18.9 85.1 38.7 85.1C47 85.1 54.6 82.3 60.6 77.7C56.7 79.2 52.4 80 47.9 80C40.1 79.9 32.8 77.4 26.8 73.1Z" fill="#75B94E"/>
    <path d="M20.1 68.4C12.5 61.8 7.7 52.1 7.7 41.2C7.7 35.5 9 30.1 11.4 25.3C5.9 31.6 2.5 39.9 2.5 49C2.5 49.2 2.5 49.4 2.5 49.5C5.9 57.8 12.2 64.5 20.1 68.4Z" fill="#599F46"/>
    <path d="M64.9 12C74 18.6 79.9 29.2 79.9 41.3C79.9 50.4 76.6 58.6 71 65C69.2 67.1 67.1 69 64.8 70.6C58.9 74.9 51.6 77.4 43.8 77.4C37.7 77.4 31.9 75.9 26.8 73.2C32.7 77.5 40 80 47.9 80C52.4 80 56.6 79.2 60.6 77.7C68.3 74.8 74.8 69.3 79 62.3C82.2 56.9 84.1 50.6 84.1 43.9C84 30 76.3 18 64.9 12Z" fill="#F08046"/>
    <path d="M31.7 50C31.8 50.2 31.9 50.3 31.9 50.5C31.9 50.7 31.8 50.9 31.7 51C31.6 51.1 31.4 51.2 31.2 51.2H21.9C21.7 51.2 21.5 51.1 21.4 51C21.3 50.9 21.2 50.7 21.2 50.5V34.5C21.2 34.3 21.3 34.1 21.4 34C21.5 33.9 21.7 33.8 21.9 33.8H31.2C31.4 33.8 31.6 33.9 31.7 34C31.8 34.1 31.9 34.3 31.9 34.5C31.9 34.7 31.8 34.9 31.7 35C31.6 35.1 31.4 35.2 31.2 35.2H22.8V41.5H30.1C30.3 41.5 30.5 41.6 30.6 41.7C30.7 41.8 30.8 42 30.8 42.2C30.8 42.4 30.7 42.6 30.6 42.7C30.5 42.8 30.3 42.9 30.1 42.9H22.8V49.7H31.2C31.4 49.8 31.6 49.9 31.7 50Z" fill="white"/>
    <path d="M49.5 33.9C49.7 34 49.7 34.2 49.7 34.4C49.7 34.5 49.7 34.6 49.6 34.8L42.8 50.8C42.7 51 42.6 51.1 42.5 51.2C42.4 51.3 42.2 51.3 42.1 51.3C41.9 51.3 41.8 51.3 41.7 51.2C41.6 51.1 41.5 51 41.4 50.8L34.7 34.8C34.6 34.7 34.6 34.6 34.6 34.4C34.6 34.2 34.7 34 34.8 33.9C35 33.8 35.1 33.7 35.3 33.7C35.7 33.7 35.9 33.9 36.1 34.3L42.2 48.7L48.2 34.2C48.3 34.1 48.4 33.9 48.5 33.8C48.6 33.7 48.8 33.7 48.9 33.7C49.2 33.7 49.4 33.8 49.5 33.9Z" fill="white"/>
    <path d="M67.1 47.2C66.4 48.6 65.4 49.6 64.1 50.4C62.8 51.2 61.4 51.6 59.7 51.6C58.1 51.6 56.6 51.2 55.3 50.4C54 49.6 53 48.6 52.3 47.2C51.6 45.8 51.2 44.3 51.2 42.6C51.2 40.9 51.6 39.3 52.3 37.9C53 36.5 54 35.5 55.3 34.7C56.6 33.9 58 33.5 59.7 33.5C61.3 33.5 62.8 33.9 64.1 34.7C65.4 35.5 66.4 36.5 67.1 37.9C67.8 39.3 68.2 40.8 68.2 42.6C68.2 44.2 67.9 45.8 67.1 47.2ZM65.7 38.6C65.1 37.5 64.3 36.6 63.3 35.9C62.3 35.3 61.1 34.9 59.7 34.9C58.3 34.9 57.2 35.2 56.1 35.9C55.1 36.5 54.3 37.4 53.7 38.6C53.1 39.7 52.8 41 52.8 42.5C52.8 44 53.1 45.3 53.7 46.4C54.3 47.5 55.1 48.4 56.1 49.1C57.1 49.7 58.3 50.1 59.7 50.1C61.1 50.1 62.2 49.8 63.3 49.1C64.3 48.5 65.1 47.6 65.7 46.4C66.3 45.3 66.6 44 66.6 42.5C66.6 41 66.3 39.8 65.7 38.6Z" fill="white"/>
</svg>
