<svg width="91" height="85" viewBox="0 0 91 85" fill="none" xmlns="http://www.w3.org/2000/svg">
    <path d="M90.2 36.1C90.2 16.2 74 0 54.1 0C51 0 48 0.4 45.1 1.1C50.6 2.5 55.6 5.2 59.8 8.8C61.6 9.7 63.3 10.7 64.9 11.9C76.3 18 84 30 84 43.8C84 50.5 82.1 56.8 78.9 62.2C85.9 55.7 90.2 46.4 90.2 36.1Z" fill="#69ACDF"/>
    <path d="M11.4 25.3C15.7 16.5 23.5 9.7 33 6.8C36.6 4.2 40.6 2.3 45 1.2C42.1 0.5 39.1 0.1 36 0.1C16.2 0 0 16.2 0 36.1C0 40.8 0.9 45.4 2.6 49.5C2.6 49.3 2.6 49.1 2.6 49C2.6 39.9 5.9 31.6 11.4 25.3Z" fill="#A1C854"/>
    <path d="M43.8 5.2C49.5 5.2 54.9 6.5 59.7 8.9C55.5 5.3 50.6 2.6 45 1.2C40.6 2.3 36.6 4.3 33 6.8C36.5 5.7 40.1 5.2 43.8 5.2Z" fill="#599F46"/>
    <path d="M26.8 73.1C24.4 71.8 22.1 70.3 20.1 68.5C12.2 64.5 5.9 57.8 2.6 49.5C2.9 69.2 18.9 85 38.7 85C47 85 54.6 82.2 60.6 77.6C56.7 79.1 52.4 79.9 47.9 79.9C40.1 79.9 32.8 77.4 26.8 73.1Z" fill="#75B94E"/>
    <path d="M20.1 68.4C12.5 61.8 7.7 52.1 7.7 41.2C7.7 35.5 9 30.1 11.4 25.3C5.9 31.6 2.6 39.9 2.6 49C2.6 49.2 2.6 49.4 2.6 49.5C5.9 57.8 12.2 64.5 20.1 68.4Z" fill="#599F46"/>
    <path d="M64.9 12C74 18.6 79.9 29.2 79.9 41.3C79.9 50.4 76.6 58.6 71 65C69.2 67.1 67.1 69 64.8 70.6C58.9 74.9 51.6 77.4 43.8 77.4C37.7 77.4 31.9 75.9 26.8 73.2C32.7 77.5 40 80 47.9 80C52.4 80 56.6 79.2 60.6 77.7C68.3 74.8 74.8 69.3 79 62.3C82.2 56.9 84.1 50.6 84.1 43.9C84 30 76.3 18 64.9 12Z" fill="#F08046"/>
</svg>
